<?xml version="1.0" encoding="utf-8"?>
<!-- Generator: Adobe Illustrator 16.2.1, SVG Export Plug-In . SVG Version: 6.00 Build 0)  -->
<!DOCTYPE svg PUBLIC "-//W3C//DTD SVG 1.0//EN" "http://www.w3.org/TR/2001/REC-SVG-20010904/DTD/svg10.dtd" [
	<!ENTITY ns_flows "http://ns.adobe.com/Flows/1.0/">
	<!ENTITY ns_extend "http://ns.adobe.com/Extensibility/1.0/">
	<!ENTITY ns_ai "http://ns.adobe.com/AdobeIllustrator/10.0/">
	<!ENTITY ns_graphs "http://ns.adobe.com/Graphs/1.0/">
]>
<svg version="1.0" id="Layer_1" xmlns:x="&ns_extend;" xmlns:i="&ns_ai;" xmlns:graph="&ns_graphs;"
	 xmlns="http://www.w3.org/2000/svg" xmlns:xlink="http://www.w3.org/1999/xlink" xmlns:a="http://ns.adobe.com/AdobeSVGViewerExtensions/3.0/"
	 x="0px" y="0px" width="696.211px" height="653.217px" viewBox="0 0 696.211 653.217" enable-background="new 0 0 696.211 653.217"
	 xml:space="preserve">
<path d="M669.711,55.217h-31.5v-31.5c0-8.822-6.678-15.5-15.5-15.5h-39c-8.822,0-16.5,6.678-16.5,15.5v31.5h-30.5
	c-8.822,0-16.5,6.678-16.5,15.5v39c0,1.383,0.208,2.732,0.561,4.034c-0.353,1.26-0.561,2.583-0.561,3.966v31.5h-23v-31.5
	c0-8.822-6.678-15.5-15.5-15.5h-39c-1.383,0-2.732,0.182-4.034,0.493c-1.261-0.311-2.583-0.493-3.966-0.493h-39
	c-8.822,0-16.5,6.678-16.5,15.5v31.5h-30.5c-8.822,0-16.5,6.678-16.5,15.5v31.5h-30.5c-1.383,0-2.732,0.182-4.034,0.493
	c-1.26-0.311-2.583-0.493-3.966-0.493h-31.5v-31.5c0-8.822-6.678-15.5-15.5-15.5h-31.5v-31.5c0-8.822-6.678-15.5-15.5-15.5h-39
	c-1.383,0-2.732,0.182-4.034,0.493c-1.26-0.311-2.583-0.493-3.966-0.493h-39c-8.822,0-16.5,6.678-16.5,15.5v31.5h-30.5
	c-8.822,0-16.5,6.678-16.5,15.5v31.5h-30.5c-8.822,0-16.5,6.678-16.5,15.5v39c0,1.383,0.208,2.732,0.561,4.034
	c-0.353,1.26-0.561,2.583-0.561,3.966v39c0,1.383,0.208,2.732,0.561,4.034c-0.353,1.26-0.561,2.583-0.561,3.966v39
	c0,1.383,0.208,2.732,0.561,4.034c-0.353,1.26-0.561,2.583-0.561,3.966v39c0,8.822,7.678,16.5,16.5,16.5h30.5v30.5
	c0,8.822,7.678,16.5,16.5,16.5h30.5v30.5c0,8.822,7.678,16.5,16.5,16.5h30.5v30.5c0,8.822,7.678,16.5,16.5,16.5h30.5v30.5
	c0,8.822,7.678,16.5,16.5,16.5h30.5v30.5c0,8.822,7.678,16.5,16.5,16.5h39c1.383,0,2.706-0.208,3.966-0.561
	c1.302,0.353,2.651,0.561,4.034,0.561h39c8.822,0,15.5-7.678,15.5-16.5v-30.5h31.5c8.822,0,15.5-7.678,15.5-16.5v-30.5h31.5
	c8.822,0,15.5-7.678,15.5-16.5v-30.5h31.5c8.822,0,15.5-7.678,15.5-16.5v-30.5h31.5c8.822,0,15.5-7.678,15.5-16.5v-30.5h31.5
	c8.822,0,15.5-7.678,15.5-16.5v-39c0-1.383-0.182-2.706-0.492-3.966c0.311-1.302,0.492-2.651,0.492-4.034v-39
	c0-1.383-0.182-2.706-0.492-3.966c0.311-1.302,0.492-2.651,0.492-4.034v-39c0-1.383-0.182-2.706-0.492-3.966
	c0.311-1.302,0.492-2.651,0.492-4.034v-39c0-8.822-6.678-15.5-15.5-15.5h-31.5v-23h31.5c1.383,0,2.705-0.208,3.966-0.561
	c1.302,0.353,2.651,0.561,4.034,0.561h39c8.822,0,15.5-7.678,15.5-16.5v-30.5h31.5c8.822,0,15.5-7.678,15.5-16.5v-39
	C685.211,61.895,678.534,55.217,669.711,55.217z"/>
<path fill="#FF0000" d="M152.211,151.217c0,0.552-0.448,1-1,1h-39c-0.552,0-1-0.448-1-1v-39c0-0.552,0.448-1,1-1h39
	c0.552,0,1,0.448,1,1V151.217z"/>
<path fill="#FF0000" d="M199.211,151.217c0,0.552-0.448,1-1,1h-39c-0.552,0-1-0.448-1-1v-39c0-0.552,0.448-1,1-1h39
	c0.552,0,1,0.448,1,1V151.217z"/>
<path fill="#FF0000" d="M434.211,151.217c0,0.552-0.447,1-1,1h-39c-0.553,0-1-0.448-1-1v-39c0-0.552,0.447-1,1-1h39
	c0.553,0,1,0.448,1,1V151.217z"/>
<path fill="#FF0000" d="M481.211,151.217c0,0.552-0.447,1-1,1h-39c-0.553,0-1-0.448-1-1v-39c0-0.552,0.447-1,1-1h39
	c0.553,0,1,0.448,1,1V151.217z"/>
<path fill="#FF0000" d="M105.211,198.217c0,0.552-0.448,1-1,1h-39c-0.552,0-1-0.448-1-1v-39c0-0.552,0.448-1,1-1h39
	c0.552,0,1,0.448,1,1V198.217z"/>
<path fill="#FCD9D9" d="M152.211,198.217c0,0.552-0.448,1-1,1h-39c-0.552,0-1-0.448-1-1v-39c0-0.552,0.448-1,1-1h39
	c0.552,0,1,0.448,1,1V198.217z"/>
<path fill="#FF0000" d="M199.211,198.217c0,0.552-0.448,1-1,1h-39c-0.552,0-1-0.448-1-1v-39c0-0.552,0.448-1,1-1h39
	c0.552,0,1,0.448,1,1V198.217z"/>
<path fill="#FF0000" d="M246.211,198.217c0,0.552-0.448,1-1,1h-39c-0.552,0-1-0.448-1-1v-39c0-0.552,0.448-1,1-1h39
	c0.552,0,1,0.448,1,1V198.217z"/>
<path fill="#FF0000" d="M387.211,198.217c0,0.552-0.447,1-1,1h-39c-0.553,0-1-0.448-1-1v-39c0-0.552,0.447-1,1-1h39
	c0.553,0,1,0.448,1,1V198.217z"/>
<path fill="#FF0000" d="M434.211,198.217c0,0.552-0.447,1-1,1h-39c-0.553,0-1-0.448-1-1v-39c0-0.552,0.447-1,1-1h39
	c0.553,0,1,0.448,1,1V198.217z"/>
<path fill="#FF0000" d="M481.211,198.217c0,0.552-0.447,1-1,1h-39c-0.553,0-1-0.448-1-1v-39c0-0.552,0.447-1,1-1h39
	c0.553,0,1,0.448,1,1V198.217z"/>
<path fill="#FFFFFF" d="M622.211,104.217c0,0.552-0.447,1-1,1h-39c-0.553,0-1-0.448-1-1v-39c0-0.552,0.447-1,1-1h39
	c0.553,0,1,0.448,1,1V104.217z"/>
<path fill="#FFFFFF" d="M669.211,104.217c0,0.552-0.447,1-1,1h-39c-0.553,0-1-0.448-1-1v-39c0-0.552,0.447-1,1-1h39
	c0.553,0,1,0.448,1,1V104.217z"/>
<path fill="#FFFFFF" d="M622.211,57.217c0,0.552-0.447,1-1,1h-39c-0.553,0-1-0.448-1-1v-39c0-0.552,0.447-1,1-1h39
	c0.553,0,1,0.448,1,1V57.217z"/>
<path fill="#FFFFFF" d="M528.211,198.217c0,0.552-0.447,1-1,1h-39c-0.553,0-1-0.448-1-1v-39c0-0.552,0.447-1,1-1h39
	c0.553,0,1,0.448,1,1V198.217z"/>
<path fill="#FFFFFF" d="M575.211,151.217c0,0.552-0.447,1-1,1h-39c-0.553,0-1-0.448-1-1v-39c0-0.552,0.447-1,1-1h39
	c0.553,0,1,0.448,1,1V151.217z"/>
<path fill="#FFFFFF" d="M622.211,151.217c0,0.552-0.447,1-1,1h-39c-0.553,0-1-0.448-1-1v-39c0-0.552,0.447-1,1-1h39
	c0.553,0,1,0.448,1,1V151.217z"/>
<path fill="#FFFFFF" d="M575.211,104.217c0,0.552-0.447,1-1,1h-39c-0.553,0-1-0.448-1-1v-39c0-0.552,0.447-1,1-1h39
	c0.553,0,1,0.448,1,1V104.217z"/>
<path fill="#FF0000" d="M58.211,245.217c0,0.552-0.448,1-1,1h-39c-0.552,0-1-0.448-1-1v-39c0-0.552,0.448-1,1-1h39
	c0.552,0,1,0.448,1,1V245.217z"/>
<path fill="#F9C7C7" d="M105.211,245.217c0,0.552-0.448,1-1,1h-39c-0.552,0-1-0.448-1-1v-39c0-0.552,0.448-1,1-1h39
	c0.552,0,1,0.448,1,1V245.217z"/>
<path fill="#FF0000" d="M152.211,245.217c0,0.552-0.448,1-1,1h-39c-0.552,0-1-0.448-1-1v-39c0-0.552,0.448-1,1-1h39
	c0.552,0,1,0.448,1,1V245.217z"/>
<path fill="#FF0000" d="M199.211,245.217c0,0.552-0.448,1-1,1h-39c-0.552,0-1-0.448-1-1v-39c0-0.552,0.448-1,1-1h39
	c0.552,0,1,0.448,1,1V245.217z"/>
<path fill="#FF0000" d="M246.211,245.217c0,0.552-0.448,1-1,1h-39c-0.552,0-1-0.448-1-1v-39c0-0.552,0.448-1,1-1h39
	c0.552,0,1,0.448,1,1V245.217z"/>
<path fill="#FF0000" d="M293.211,245.217c0,0.552-0.448,1-1,1h-39c-0.552,0-1-0.448-1-1v-39c0-0.552,0.448-1,1-1h39
	c0.552,0,1,0.448,1,1V245.217z"/>
<path fill="#FF0000" d="M340.211,245.217c0,0.552-0.447,1-1,1h-39c-0.552,0-1-0.448-1-1v-39c0-0.552,0.448-1,1-1h39
	c0.553,0,1,0.448,1,1V245.217z"/>
<path fill="#FF0000" d="M387.211,245.217c0,0.552-0.447,1-1,1h-39c-0.553,0-1-0.448-1-1v-39c0-0.552,0.447-1,1-1h39
	c0.553,0,1,0.448,1,1V245.217z"/>
<path fill="#FF0000" d="M434.211,245.217c0,0.552-0.447,1-1,1h-39c-0.553,0-1-0.448-1-1v-39c0-0.552,0.447-1,1-1h39
	c0.553,0,1,0.448,1,1V245.217z"/>
<path fill="#FFFFFF" d="M481.211,245.217c0,0.552-0.447,1-1,1h-39c-0.553,0-1-0.448-1-1v-39c0-0.552,0.447-1,1-1h39
	c0.553,0,1,0.448,1,1V245.217z"/>
<path fill="#FF0000" d="M528.211,245.217c0,0.552-0.447,1-1,1h-39c-0.553,0-1-0.448-1-1v-39c0-0.552,0.447-1,1-1h39
	c0.553,0,1,0.448,1,1V245.217z"/>
<path fill="#FF0000" d="M575.211,245.217c0,0.552-0.447,1-1,1h-39c-0.553,0-1-0.448-1-1v-39c0-0.552,0.447-1,1-1h39
	c0.553,0,1,0.448,1,1V245.217z"/>
<path fill="#FF0000" d="M58.211,292.217c0,0.552-0.448,1-1,1h-39c-0.552,0-1-0.448-1-1v-39c0-0.552,0.448-1,1-1h39
	c0.552,0,1,0.448,1,1V292.217z"/>
<path fill="#F9B7B7" d="M105.211,292.217c0,0.552-0.448,1-1,1h-39c-0.552,0-1-0.448-1-1v-39c0-0.552,0.448-1,1-1h39
	c0.552,0,1,0.448,1,1V292.217z"/>
<path fill="#FF0000" d="M152.211,292.217c0,0.552-0.448,1-1,1h-39c-0.552,0-1-0.448-1-1v-39c0-0.552,0.448-1,1-1h39
	c0.552,0,1,0.448,1,1V292.217z"/>
<path fill="#FF0000" d="M199.211,292.217c0,0.552-0.448,1-1,1h-39c-0.552,0-1-0.448-1-1v-39c0-0.552,0.448-1,1-1h39
	c0.552,0,1,0.448,1,1V292.217z"/>
<path fill="#FF0000" d="M246.211,292.217c0,0.552-0.448,1-1,1h-39c-0.552,0-1-0.448-1-1v-39c0-0.552,0.448-1,1-1h39
	c0.552,0,1,0.448,1,1V292.217z"/>
<path fill="#FF0000" d="M293.211,292.217c0,0.552-0.448,1-1,1h-39c-0.552,0-1-0.448-1-1v-39c0-0.552,0.448-1,1-1h39
	c0.552,0,1,0.448,1,1V292.217z"/>
<path fill="#FF0000" d="M340.211,292.217c0,0.552-0.447,1-1,1h-39c-0.552,0-1-0.448-1-1v-39c0-0.552,0.448-1,1-1h39
	c0.553,0,1,0.448,1,1V292.217z"/>
<path fill="#FF0000" d="M387.211,292.217c0,0.552-0.447,1-1,1h-39c-0.553,0-1-0.448-1-1v-39c0-0.552,0.447-1,1-1h39
	c0.553,0,1,0.448,1,1V292.217z"/>
<path fill="#FFFFFF" d="M434.211,292.217c0,0.552-0.447,1-1,1h-39c-0.553,0-1-0.448-1-1v-39c0-0.552,0.447-1,1-1h39
	c0.553,0,1,0.448,1,1V292.217z"/>
<path fill="#FF0000" d="M481.211,292.217c0,0.552-0.447,1-1,1h-39c-0.553,0-1-0.448-1-1v-39c0-0.552,0.447-1,1-1h39
	c0.553,0,1,0.448,1,1V292.217z"/>
<path fill="#FF0000" d="M528.211,292.217c0,0.552-0.447,1-1,1h-39c-0.553,0-1-0.448-1-1v-39c0-0.552,0.447-1,1-1h39
	c0.553,0,1,0.448,1,1V292.217z"/>
<path fill="#FF0000" d="M575.211,292.217c0,0.552-0.447,1-1,1h-39c-0.553,0-1-0.448-1-1v-39c0-0.552,0.447-1,1-1h39
	c0.553,0,1,0.448,1,1V292.217z"/>
<path fill="#FF0000" d="M58.211,339.217c0,0.552-0.448,1-1,1h-39c-0.552,0-1-0.448-1-1v-39c0-0.552,0.448-1,1-1h39
	c0.552,0,1,0.448,1,1V339.217z"/>
<path fill="#F48484" d="M105.211,339.217c0,0.552-0.448,1-1,1h-39c-0.552,0-1-0.448-1-1v-39c0-0.552,0.448-1,1-1h39
	c0.552,0,1,0.448,1,1V339.217z"/>
<path fill="#FF0000" d="M152.211,339.217c0,0.552-0.448,1-1,1h-39c-0.552,0-1-0.448-1-1v-39c0-0.552,0.448-1,1-1h39
	c0.552,0,1,0.448,1,1V339.217z"/>
<path fill="#FF0000" d="M199.211,339.217c0,0.552-0.448,1-1,1h-39c-0.552,0-1-0.448-1-1v-39c0-0.552,0.448-1,1-1h39
	c0.552,0,1,0.448,1,1V339.217z"/>
<path fill="#FF0000" d="M246.211,339.217c0,0.552-0.448,1-1,1h-39c-0.552,0-1-0.448-1-1v-39c0-0.552,0.448-1,1-1h39
	c0.552,0,1,0.448,1,1V339.217z"/>
<path fill="#FF0000" d="M293.211,339.217c0,0.552-0.448,1-1,1h-39c-0.552,0-1-0.448-1-1v-39c0-0.552,0.448-1,1-1h39
	c0.552,0,1,0.448,1,1V339.217z"/>
<path fill="#FF0000" d="M340.211,339.217c0,0.552-0.447,1-1,1h-39c-0.552,0-1-0.448-1-1v-39c0-0.552,0.448-1,1-1h39
	c0.553,0,1,0.448,1,1V339.217z"/>
<path fill="#FFFFFF" d="M387.211,339.217c0,0.552-0.447,1-1,1h-39c-0.553,0-1-0.448-1-1v-39c0-0.552,0.447-1,1-1h39
	c0.553,0,1,0.448,1,1V339.217z"/>
<path fill="#B31D25" d="M434.211,339.217c0,0.552-0.447,1-1,1h-39c-0.553,0-1-0.448-1-1v-39c0-0.552,0.447-1,1-1h39
	c0.553,0,1,0.448,1,1V339.217z"/>
<path fill="#FF0000" d="M481.211,339.217c0,0.552-0.447,1-1,1h-39c-0.553,0-1-0.448-1-1v-39c0-0.552,0.447-1,1-1h39
	c0.553,0,1,0.448,1,1V339.217z"/>
<path fill="#FF0000" d="M528.211,339.217c0,0.552-0.447,1-1,1h-39c-0.553,0-1-0.448-1-1v-39c0-0.552,0.447-1,1-1h39
	c0.553,0,1,0.448,1,1V339.217z"/>
<path fill="#FF0000" d="M575.211,339.217c0,0.552-0.447,1-1,1h-39c-0.553,0-1-0.448-1-1v-39c0-0.552,0.447-1,1-1h39
	c0.553,0,1,0.448,1,1V339.217z"/>
<path fill="#FF0000" d="M58.211,386.217c0,0.553-0.448,1-1,1h-39c-0.552,0-1-0.447-1-1v-39c0-0.552,0.448-1,1-1h39
	c0.552,0,1,0.448,1,1V386.217z"/>
<path fill="#FF0000" d="M105.211,386.217c0,0.553-0.448,1-1,1h-39c-0.552,0-1-0.447-1-1v-39c0-0.552,0.448-1,1-1h39
	c0.552,0,1,0.448,1,1V386.217z"/>
<path fill="#F48484" d="M152.211,386.217c0,0.553-0.448,1-1,1h-39c-0.552,0-1-0.447-1-1v-39c0-0.552,0.448-1,1-1h39
	c0.552,0,1,0.448,1,1V386.217z"/>
<path fill="#FF0000" d="M199.211,386.217c0,0.553-0.448,1-1,1h-39c-0.552,0-1-0.447-1-1v-39c0-0.552,0.448-1,1-1h39
	c0.552,0,1,0.448,1,1V386.217z"/>
<path fill="#FF0000" d="M246.211,386.217c0,0.553-0.448,1-1,1h-39c-0.552,0-1-0.447-1-1v-39c0-0.552,0.448-1,1-1h39
	c0.552,0,1,0.448,1,1V386.217z"/>
<path fill="#FF0000" d="M293.211,386.217c0,0.553-0.448,1-1,1h-39c-0.552,0-1-0.447-1-1v-39c0-0.552,0.448-1,1-1h39
	c0.552,0,1,0.448,1,1V386.217z"/>
<path fill="#FF0000" d="M340.211,386.217c0,0.553-0.447,1-1,1h-39c-0.552,0-1-0.447-1-1v-39c0-0.552,0.448-1,1-1h39
	c0.553,0,1,0.448,1,1V386.217z"/>
<path fill="#BC0000" d="M387.211,386.217c0,0.553-0.447,1-1,1h-39c-0.553,0-1-0.447-1-1v-39c0-0.552,0.447-1,1-1h39
	c0.553,0,1,0.448,1,1V386.217z"/>
<path fill="#B31D25" d="M434.211,386.217c0,0.553-0.447,1-1,1h-39c-0.553,0-1-0.447-1-1v-39c0-0.552,0.447-1,1-1h39
	c0.553,0,1,0.448,1,1V386.217z"/>
<path fill="#FF0000" d="M481.211,386.217c0,0.553-0.447,1-1,1h-39c-0.553,0-1-0.447-1-1v-39c0-0.552,0.447-1,1-1h39
	c0.553,0,1,0.448,1,1V386.217z"/>
<path fill="#FF0000" d="M528.211,386.217c0,0.553-0.447,1-1,1h-39c-0.553,0-1-0.447-1-1v-39c0-0.552,0.447-1,1-1h39
	c0.553,0,1,0.448,1,1V386.217z"/>
<path fill="#FF0000" d="M575.211,386.217c0,0.553-0.447,1-1,1h-39c-0.553,0-1-0.447-1-1v-39c0-0.552,0.447-1,1-1h39
	c0.553,0,1,0.448,1,1V386.217z"/>
<path fill="#FF0000" d="M105.211,433.217c0,0.553-0.448,1-1,1h-39c-0.552,0-1-0.447-1-1v-39c0-0.553,0.448-1,1-1h39
	c0.552,0,1,0.447,1,1V433.217z"/>
<path fill="#FF0000" d="M152.211,433.217c0,0.553-0.448,1-1,1h-39c-0.552,0-1-0.447-1-1v-39c0-0.553,0.448-1,1-1h39
	c0.552,0,1,0.447,1,1V433.217z"/>
<path fill="#FF0000" d="M199.211,433.217c0,0.553-0.448,1-1,1h-39c-0.552,0-1-0.447-1-1v-39c0-0.553,0.448-1,1-1h39
	c0.552,0,1,0.447,1,1V433.217z"/>
<path fill="#FF0000" d="M246.211,433.217c0,0.553-0.448,1-1,1h-39c-0.552,0-1-0.447-1-1v-39c0-0.553,0.448-1,1-1h39
	c0.552,0,1,0.447,1,1V433.217z"/>
<path fill="#FF0000" d="M293.211,433.217c0,0.553-0.448,1-1,1h-39c-0.552,0-1-0.447-1-1v-39c0-0.553,0.448-1,1-1h39
	c0.552,0,1,0.447,1,1V433.217z"/>
<path fill="#FF0000" d="M340.211,433.217c0,0.553-0.447,1-1,1h-39c-0.552,0-1-0.447-1-1v-39c0-0.553,0.448-1,1-1h39
	c0.553,0,1,0.447,1,1V433.217z"/>
<path fill="#B50000" d="M387.211,433.217c0,0.553-0.447,1-1,1h-39c-0.553,0-1-0.447-1-1v-39c0-0.553,0.447-1,1-1h39
	c0.553,0,1,0.447,1,1V433.217z"/>
<path fill="#FF0000" d="M434.211,433.217c0,0.553-0.447,1-1,1h-39c-0.553,0-1-0.447-1-1v-39c0-0.553,0.447-1,1-1h39
	c0.553,0,1,0.447,1,1V433.217z"/>
<path fill="#FF0000" d="M481.211,433.217c0,0.553-0.447,1-1,1h-39c-0.553,0-1-0.447-1-1v-39c0-0.553,0.447-1,1-1h39
	c0.553,0,1,0.447,1,1V433.217z"/>
<path fill="#FF0000" d="M528.211,433.217c0,0.553-0.447,1-1,1h-39c-0.553,0-1-0.447-1-1v-39c0-0.553,0.447-1,1-1h39
	c0.553,0,1,0.447,1,1V433.217z"/>
<path fill="#FF0000" d="M152.211,480.217c0,0.553-0.448,1-1,1h-39c-0.552,0-1-0.447-1-1v-39c0-0.553,0.448-1,1-1h39
	c0.552,0,1,0.447,1,1V480.217z"/>
<path fill="#FF0000" d="M199.211,480.217c0,0.553-0.448,1-1,1h-39c-0.552,0-1-0.447-1-1v-39c0-0.553,0.448-1,1-1h39
	c0.552,0,1,0.447,1,1V480.217z"/>
<path fill="#FF0000" d="M246.211,480.217c0,0.553-0.448,1-1,1h-39c-0.552,0-1-0.447-1-1v-39c0-0.553,0.448-1,1-1h39
	c0.552,0,1,0.447,1,1V480.217z"/>
<path fill="#FF0000" d="M293.211,480.217c0,0.553-0.448,1-1,1h-39c-0.552,0-1-0.447-1-1v-39c0-0.553,0.448-1,1-1h39
	c0.552,0,1,0.447,1,1V480.217z"/>
<path fill="#FF0000" d="M340.211,480.217c0,0.553-0.447,1-1,1h-39c-0.552,0-1-0.447-1-1v-39c0-0.553,0.448-1,1-1h39
	c0.553,0,1,0.447,1,1V480.217z"/>
<path fill="#960000" d="M387.211,480.217c0,0.553-0.447,1-1,1h-39c-0.553,0-1-0.447-1-1v-39c0-0.553,0.447-1,1-1h39
	c0.553,0,1,0.447,1,1V480.217z"/>
<path fill="#FF0000" d="M434.211,480.217c0,0.553-0.447,1-1,1h-39c-0.553,0-1-0.447-1-1v-39c0-0.553,0.447-1,1-1h39
	c0.553,0,1,0.447,1,1V480.217z"/>
<path fill="#FF0000" d="M481.211,480.217c0,0.553-0.447,1-1,1h-39c-0.553,0-1-0.447-1-1v-39c0-0.553,0.447-1,1-1h39
	c0.553,0,1,0.447,1,1V480.217z"/>
<path fill="#FF0000" d="M199.211,527.217c0,0.553-0.448,1-1,1h-39c-0.552,0-1-0.447-1-1v-39c0-0.553,0.448-1,1-1h39
	c0.552,0,1,0.447,1,1V527.217z"/>
<path fill="#FF0000" d="M246.211,527.217c0,0.553-0.448,1-1,1h-39c-0.552,0-1-0.447-1-1v-39c0-0.553,0.448-1,1-1h39
	c0.552,0,1,0.447,1,1V527.217z"/>
<path fill="#FF0000" d="M293.211,527.217c0,0.553-0.448,1-1,1h-39c-0.552,0-1-0.447-1-1v-39c0-0.553,0.448-1,1-1h39
	c0.552,0,1,0.447,1,1V527.217z"/>
<path fill="#FF0000" d="M340.211,527.217c0,0.553-0.447,1-1,1h-39c-0.552,0-1-0.447-1-1v-39c0-0.553,0.448-1,1-1h39
	c0.553,0,1,0.447,1,1V527.217z"/>
<path fill="#B31D25" d="M387.211,527.217c0,0.553-0.447,1-1,1h-39c-0.553,0-1-0.447-1-1v-39c0-0.553,0.447-1,1-1h39
	c0.553,0,1,0.447,1,1V527.217z"/>
<path fill="#FF0000" d="M434.211,527.217c0,0.553-0.447,1-1,1h-39c-0.553,0-1-0.447-1-1v-39c0-0.553,0.447-1,1-1h39
	c0.553,0,1,0.447,1,1V527.217z"/>
<path fill="#FF0000" d="M246.211,574.217c0,0.553-0.448,1-1,1h-39c-0.552,0-1-0.447-1-1v-39c0-0.553,0.448-1,1-1h39
	c0.552,0,1,0.447,1,1V574.217z"/>
<path fill="#FF0000" d="M293.211,574.217c0,0.553-0.448,1-1,1h-39c-0.552,0-1-0.447-1-1v-39c0-0.553,0.448-1,1-1h39
	c0.552,0,1,0.447,1,1V574.217z"/>
<path fill="#FF0000" d="M340.211,574.217c0,0.553-0.447,1-1,1h-39c-0.552,0-1-0.447-1-1v-39c0-0.553,0.448-1,1-1h39
	c0.553,0,1,0.447,1,1V574.217z"/>
<path fill="#B20214" d="M387.211,574.217c0,0.553-0.447,1-1,1h-39c-0.553,0-1-0.447-1-1v-39c0-0.553,0.447-1,1-1h39
	c0.553,0,1,0.447,1,1V574.217z"/>
<path fill="#FF0000" d="M293.211,621.217c0,0.553-0.448,1-1,1h-39c-0.552,0-1-0.447-1-1v-39c0-0.553,0.448-1,1-1h39
	c0.552,0,1,0.447,1,1V621.217z"/>
<path fill="#FF0000" d="M340.211,621.217c0,0.553-0.447,1-1,1h-39c-0.552,0-1-0.447-1-1v-39c0-0.553,0.448-1,1-1h39
	c0.553,0,1,0.447,1,1V621.217z"/>
</svg>
